<?xml version="1.0"?>
<svg xmlns:rdf="http://www.w3.org/1999/02/22-rdf-syntax-ns#" xmlns="http://www.w3.org/2000/svg" xmlns:cc="http://web.resource.org/cc/" xmlns:dc="http://purl.org/dc/elements/1.1/" xmlns:sodipodi="http://inkscape.sourceforge.net/DTD/sodipodi-0.dtd" xmlns:svg="http://www.w3.org/2000/svg" id="svg1322" sodipodi:version="0.32" height="297mm" width="210mm" sodipodi:docname="The-Gorgon's-head-detail-perseus.svg" sodipodi:docbase="C:\foo\wikipedia\transfer">
  <sodipodi:namedview id="base" bordercolor="#666666" borderopacity="1.0" pagecolor="#ffffff"/>
  <path id="path1331" d="m550.23 1030.1c-1.34-1.1-1.32-1.5 0.38-7 0.59-1.9 1.06-4.2 1.05-5.2-0.04-3.2-1.77-9.8-3.6-13.7-2.83-5.98-4.83-11.19-5.1-13.24-0.24-1.79-0.8-3.33-1.79-4.98-0.24-0.4-1.06-1.89-1.83-3.33-0.77-1.43-1.97-3.67-2.67-4.98-0.7-1.3-2.23-3.77-3.4-5.49-1.17-1.71-2.74-4.49-3.49-6.17-1.42-3.16-2.26-4.78-3.9-7.48-0.98-1.63-2.08-4.23-3.03-7.19-0.29-0.91-0.85-2.08-1.23-2.6-0.38-0.51-0.7-1.21-0.7-1.55s-0.91-2.4-2.01-4.57c-1.11-2.18-2.02-4.28-2.02-4.68 0-0.39-0.46-1.25-1.01-1.92-0.55-0.66-1.01-1.51-1.01-1.89 0-0.9-2.01-5.59-2.79-6.52-0.33-0.39-0.76-1.67-0.94-2.84-0.61-3.83-2.29-9.05-4.73-14.71-0.85-1.96-2.37-6.87-3.38-10.92-1.01-4.04-2.31-8.31-2.87-9.48-0.95-1.98-2.41-6.43-3.43-10.44-0.67-2.65-1.44-4.8-1.94-5.39-0.25-0.3-0.62-1.37-0.81-2.37s-1.01-2.69-1.83-3.75c-0.81-1.06-1.48-2.25-1.48-2.65 0-0.8-0.91-3.69-1.54-4.88-0.22-0.43-0.56-1.55-0.75-2.5s-0.55-1.84-0.79-1.98c-0.25-0.15-0.45-0.88-0.45-1.63s-0.45-2.08-0.99-2.96c-1.83-2.91-6.43-18.25-5.88-19.6 0.13-0.31-0.08-1.16-0.48-1.87-0.39-0.72-0.71-1.76-0.71-2.31 0.02-3.23-3.75-16.51-9.79-34.47-0.66-1.96-1.21-3.98-1.22-4.51-0.02-0.82-0.63-3.62-2.11-9.72-0.91-3.74-2.11-7.89-2.53-8.78-0.25-0.52-0.82-2.19-1.27-3.7-0.82-2.78-2.82-5.41-7.84-10.34-1.22-1.2-2.87-3.01-3.66-4.03-1.3-1.69-1.41-2.13-1.19-4.78 0.29-3.49-0.03-5.37-0.96-5.71-0.37-0.13-1.59 0.44-2.7 1.27-2.04 1.51-8.06 4.03-15.14 6.31-2.08 0.68-5.03 1.7-6.55 2.28-1.53 0.57-4.48 1.18-6.56 1.33-2.53 0.19-4.36 0.62-5.54 1.29-1.3 0.75-2.96 1.09-6.3 1.3-2.5 0.15-5.68 0.63-7.06 1.05-2.29 0.7-8.04 1.24-20.58 1.93-4.83 0.26-5.89-0.09-5.89-1.99 0-1.59 1.32-2.58 3.45-2.58 1.03 0 2.32-0.28 2.86-0.63 0.55-0.34 1.79-0.92 2.76-1.28 1.91-0.7 4.05-1.98 6.05-3.6 0.7-0.57 1.76-1.17 2.37-1.34s2.31-1.64 3.78-3.25c3.05-3.35 4.45-4.57 5.26-4.59 0.32-0.01 1.52-1.18 2.68-2.6 1.17-1.42 3.29-3.41 4.73-4.43s2.95-2.48 3.36-3.24c0.41-0.75 1.49-2.12 2.39-3.02 0.91-0.91 1.65-1.84 1.65-2.07 0-0.57 2.42-3.4 5.36-6.26 3.3-3.2 7.11-7.64 8.43-9.83 0.6-0.98 1.43-1.89 1.86-2.02 0.42-0.13 1.14-0.83 1.6-1.55 0.45-0.72 1.54-2.03 2.43-2.9 1.33-1.31 1.55-1.83 1.29-3.04-0.17-0.81-0.65-1.82-1.06-2.24-0.41-0.43-0.75-1.11-0.75-1.5s-0.15-0.85-0.32-1.02c-0.58-0.54-2.67-5.67-4.01-9.81-1.56-4.84-3.59-9.38-4.78-10.68-0.48-0.52-1.02-1.7-1.22-2.61-0.46-2.21-2.19-7.04-3.07-8.61-0.4-0.71-0.59-1.85-0.43-2.61 0.19-0.9-0.15-2.28-1.01-4.1-0.71-1.5-1.29-3-1.29-3.32s-0.54-1.54-1.19-2.72c-0.73-1.29-1.33-3.42-1.54-5.43-0.21-1.94-0.75-3.92-1.33-4.8-0.54-0.83-0.99-2.29-0.99-3.25 0-0.97-0.24-2.19-0.54-2.71-0.56-1-1.19-2.96-3.21-10.11-0.69-2.45-1.58-4.51-2.09-4.86-0.74-0.51-0.79-0.8-0.29-1.82 0.81-1.68 0.78-11.2-0.04-12.21-0.59-0.72-0.84-0.72-3.41 0.1-4.88 1.57-6.29 1.66-7.43 0.51-0.56-0.56-1.13-1.88-1.29-2.94-0.15-1.09-0.8-2.46-1.5-3.18-0.67-0.68-1.36-1.62-1.53-2.08-0.68-1.8-3.77-0.22-4.6 2.36-0.42 1.28-2.6 2.98-3.84 2.98-1.47 0-4.02-3.57-5.54-7.74-1.95-5.36-2.2-7.88-1.23-12.43 0.45-2.08 0.94-4.49 1.09-5.33 0.48-2.72-2.34-7.72-4.34-7.71-0.44 0.01-1.79 0.34-3.02 0.74-1.94 0.64-2.32 0.64-2.95 0.04-2.38-2.24-0.55-14.22 2.85-18.75 0.52-0.69 1.34-2.77 1.82-4.63 1.02-3.99 0.77-4.69-2.39-6.69-2.43-1.53-2.87-2.83-1.72-5.06 0.92-1.79 2.22-9.01 2.97-16.48 0.53-5.31 0.51-5.58-0.55-7.19-0.9-1.38-1-1.9-0.56-2.98 0.59-1.48 0.3-5.91-0.59-8.9-0.34-1.18-0.55-4.68-0.49-8.55 0.1-6.04 0.01-6.71-1.01-8.31-0.62-0.95-1.29-2.7-1.5-3.87-0.2-1.17-0.92-3.54-1.6-5.26-0.67-1.72-1.36-3.96-1.53-4.98s-0.53-2.66-0.79-3.64c-0.4-1.54-0.3-2.02 0.74-3.47 0.66-0.92 1.21-2.18 1.21-2.79 0-0.62-1.23-3.39-2.74-6.15-1.5-2.76-3.01-6.25-3.35-7.75-0.33-1.5-1.12-3.59-1.74-4.63-1.11-1.86-1.88-3.91-2.8-7.47-2.63-10.16-3.05-13.72-3.3-28.31-0.23-12.65-0.31-13.61-1.35-15.66-0.89-1.75-1.33-2.15-2.24-2.03-0.9 0.12-1.14-0.08-1.14-0.95 0-0.6-1.14-2.88-2.53-5.05-1.88-2.95-2.67-4.76-3.1-7.12-0.65-3.65-0.54-28.64 0.14-30.33 0.24-0.6 0.56-6.31 0.71-12.69 0.27-11.48 0.26-11.65-0.98-15.06-0.69-1.89-1.52-4.62-1.83-6.05-0.32-1.44-0.88-3.07-1.26-3.63-1.07-1.59-0.14-11.34 1.46-15.35 0.67-1.7 1.57-3.94 1.98-4.98 0.42-1.05 1.11-2.54 1.54-3.32 0.43-0.79 2.16-4.13 3.84-7.44 1.69-3.32 3.62-6.44 4.32-6.95 0.69-0.51 1.27-1.44 1.28-2.05 0.01-0.73 0.58-1.45 1.62-2.07 0.88-0.52 2.1-1.65 2.72-2.52 0.62-0.86 2.04-2.25 3.15-3.08 2.18-1.63 4.84-4.71 7.61-8.83 0.96-1.42 2.37-3.24 3.15-4.04 1.11-1.14 1.35-1.75 1.11-2.79-0.47-1.99-2.47-5.07-3.87-5.95-2.03-1.28-6.72-6.33-7.88-8.49-0.6-1.1-2.6-3.5-4.45-5.33-2.61-2.59-3.68-3.33-4.78-3.33-0.91 0-1.43-0.25-1.43-0.69 0-0.76-5.92-5.48-6.88-5.48-0.32 0-1.74-0.85-3.14-1.9-1.4-1.04-2.88-1.9-3.29-1.9s-1.78-0.84-3.05-1.88c-1.27-1.03-3.27-2.28-4.44-2.77-1.18-0.49-3.11-1.67-4.31-2.61-2.8-2.22-5.06-2.64-7.34-1.38-0.94 0.52-2.47 1.1-3.41 1.28-3.21 0.63-6.24 1.72-6.84 2.46-0.38 0.47-1.02 0.65-1.71 0.48-0.61-0.15-2.55 0.25-4.37 0.89-1.8 0.64-4.03 1.16-4.97 1.16s-1.71 0.21-1.71 0.48c0 0.26-0.36 0.47-0.82 0.47-0.45 0-3.33 0.87-6.4 1.93-3.07 1.07-6.05 1.95-6.62 1.96-1.68 0.03-6.39 1.34-9.24 2.56-3.55 1.52-6.14 1.49-8.14-0.09-0.85-0.67-1.55-1.49-1.55-1.8 0-0.32-0.3-0.98-0.68-1.45-0.65-0.85-0.8-0.84-4.09 0.26-2.04 0.68-3.72 1.57-4.17 2.21-0.55 0.77-1.26 1.07-2.59 1.08-1 0.02-2.62 0.31-3.59 0.65-0.97 0.35-4.26 1.44-7.31 2.41-3.05 0.98-6.23 2.06-7.06 2.4s-2.88 0.98-4.54 1.44c-1.66 0.45-3.24 1-3.5 1.22-0.27 0.22-0.9 0.4-1.4 0.4s-1.31 0.2-1.79 0.43c-2.48 1.21-13.44 4.68-16.5 5.22-1.11 0.2-3.15 0.82-4.54 1.37-4.21 1.68-13.26 3.94-15.52 3.87-2.29-0.07-4.99 0.48-6.81 1.4-0.63 0.31-1.35 0.44-1.61 0.29-0.27-0.15-1.45 0.14-2.64 0.64-1.19 0.51-3.97 1.18-6.19 1.49s-4.76 0.98-5.64 1.49c-0.89 0.51-2.34 0.88-3.28 0.82-0.92-0.05-3 0.28-4.63 0.73s-3.24 0.71-3.59 0.59c-0.35-0.13-1.41 0.25-2.34 0.84-0.93 0.6-2.27 1.21-2.96 1.36-4.2 0.92-10.31 2.54-13.36 3.54-1.94 0.63-5.68 1.57-8.32 2.08-2.63 0.5-5.7 1.11-6.81 1.35-1.1 0.24-3.15 0.67-4.53 0.97-2.95 0.63-7.73 1.68-10.591 2.34-1.109 0.25-3.378 0.7-5.042 1s-3.966 0.85-5.117 1.23c-1.151 0.37-3.193 0.87-4.538 1.1s-3.807 0.77-5.47 1.21c-3.179 0.83-7.702 1.53-12.353 1.9-1.525 0.12-3.34 0.42-4.033 0.67-1.546 0.55-5.087 1.18-12.353 2.19-3.05 0.42-6.113 0.88-6.806 1.03-0.694 0.14-2.282 0.31-3.53 0.38-1.248 0.06-4.084 0.34-6.302 0.6-8.18 1-12.398-0.18-15.863-4.43-4.647-5.7-4.887-6.56-1.948-6.99 2.911-0.42 7.04-1.68 7.904-2.4 0.731-0.62 4.34-2.01 8.142-3.13 0.694-0.21 3.189-1.27 5.546-2.37s6.441-2.71 9.076-3.59c2.634-0.87 6.945-2.36 9.579-3.31 2.635-0.95 6.265-2.12 8.067-2.6 1.803-0.48 4.866-1.56 6.807-2.39 1.941-0.84 4.55-1.8 5.798-2.15 3.598-0.99 9.64-3.03 11.955-4.04 1.168-0.5 3.175-1.14 4.461-1.41 1.285-0.27 3.165-0.89 4.178-1.37 3.483-1.67 5.373-2.35 7.393-2.66 1.1-0.18 2.24-0.49 2.52-0.69 1-0.75 12.65-5.33 14.43-5.68 1.01-0.2 2.59-0.8 3.53-1.33 0.93-0.54 4.15-1.88 7.15-2.97 2.99-1.1 6.96-2.83 8.81-3.85 1.85-1.01 3.62-1.85 3.92-1.85s1.89-0.66 3.53-1.48c5.14-2.55 6.71-3.26 7.16-3.26 0.23 0 1.2-0.54 2.14-1.19s2.29-1.19 3.01-1.19 3.18-0.73 5.47-1.62c2.29-0.9 4.84-1.77 5.67-1.94 0.82-0.17 2.12-0.79 2.87-1.38 0.76-0.59 2.48-1.33 3.84-1.64 1.35-0.32 3.55-1.1 4.9-1.74 1.35-0.65 3.65-1.41 5.11-1.7s3.67-1.04 4.92-1.66 2.66-1.13 3.15-1.13 3.78-1.29 7.32-2.88c3.53-1.59 7.1-3.16 7.94-3.51 0.83-0.34 4.63-2.04 8.45-3.77s7.61-3.28 8.43-3.43 1.76-0.58 2.07-0.94c0.32-0.36 0.99-0.65 1.5-0.65 0.5 0 1.21-0.38 1.58-0.85 0.36-0.47 1.65-1.13 2.86-1.46 1.21-0.34 2.72-1.1 3.35-1.69 2.08-1.96 4.62-3.17 5.95-2.86 0.84 0.2 1.86-0.07 3.19-0.84 1.07-0.62 2.36-1.04 2.86-0.94 0.61 0.12 1.01-0.16 1.19-0.81 0.17-0.61 0.69-0.99 1.35-0.99 0.6 0 1.76-0.43 2.59-0.95s2.25-0.94 3.15-0.94c0.91 0 1.64-0.22 1.64-0.48s1-0.48 2.21-0.48c2.39 0 7.88-2.01 7.88-2.89 0-0.29-0.91-1.55-2.02-2.8s-2.02-2.62-2.02-3.05c0-0.44-0.35-1.43-0.77-2.21-0.43-0.78-0.6-1.67-0.38-1.99 0.39-0.57 0.53-1.72 0.82-6.98 0.14-2.38 0.61-3.93 1.92-6.32 0.26-0.47 0.34-1.26 0.18-1.75-0.23-0.67 0.08-1.09 1.21-1.64 0.83-0.4 1.85-0.73 2.27-0.73 1.07 0 1.81-1.51 1.81-3.68 0-1.39 0.34-2.15 1.4-3.09 1.53-1.39 5.03-2.72 7.14-2.72 0.74 0 1.58-0.22 1.87-0.49 0.36-0.34 0.96-0.34 1.93 0.01 1.52 0.54 3.29 0.24 3.29-0.56 0-0.3 0.64-0.38 1.64-0.21 0.95 0.17 2.7-0.03 4.16-0.47 3.44-1.03 4.36-1.13 13.68-1.44 5.41-0.18 8.71-0.09 9.85 0.26 1.4 0.43 5.32 3.29 7.15 5.21 4.46 4.69 7.17 6.41 9.97 6.33 0.98-0.03 1.61 0.24 1.81 0.76 0.66 1.76 1.11 1.92 3.19 1.16 1.1-0.41 1.99-1.04 1.99-1.4s0.36-0.78 0.8-0.94 1-0.79 1.25-1.41c0.43-1.06 2.49-1.64 2.49-0.69 0 0.8 1.4 0.92 2.81 0.23 0.77-0.38 1.68-0.59 2.02-0.47 0.33 0.12 1.24-0.41 2.03-1.18 0.78-0.77 1.71-1.3 2.06-1.18 0.34 0.13 0.75 0.05 0.9-0.18s2.26-1 4.68-1.71c2.43-0.71 4.75-1.53 5.17-1.82 1.44-1 3.01-1.71 3.77-1.71 0.42 0 0.76-0.3 0.76-0.67 0-0.92 2.55-1.38 5.48-1 2.16 0.28 2.55 0.19 3.64-0.9 0.67-0.66 1.46-1.21 1.74-1.22 0.29 0 1.37-0.75 2.4-1.67 1.4-1.24 2.31-1.66 3.62-1.66 1.28 0 1.96-0.3 2.52-1.09 1-1.44 3.82-2.89 7.58-3.91 1.66-0.45 3.93-1.21 5.04-1.69 2.75-1.177 12.63-4.526 15.19-5.146 1.15-0.277 2.37-0.821 2.71-1.209s1.56-0.938 2.7-1.223c1.15-0.285 3.11-1.132 4.37-1.883 1.25-0.75 3.81-1.906 5.68-2.568s4.3-1.738 5.4-2.391 2.54-1.188 3.2-1.188c0.67 0 3.41-0.96 6.1-2.135 2.69-1.174 5.12-2.135 5.41-2.135s1.19-0.534 2.02-1.186c0.82-0.653 2.1-1.3 2.84-1.437 0.75-0.138 2.37-0.586 3.62-0.994 1.25-0.409 3.74-1.149 5.54-1.645 1.79-0.496 4.03-1.242 4.96-1.657 0.93-0.416 3.25-1.163 5.16-1.66 1.9-0.498 5.72-1.846 8.47-2.995 2.76-1.149 5.77-2.238 6.7-2.42 0.93-0.181 2.48-0.82 3.46-1.42 0.97-0.6 2.67-1.355 3.78-1.678s2.24-0.74 2.52-0.927 2.7-1.131 5.38-2.097c2.69-0.967 5.44-2.174 6.13-2.683s1.5-0.925 1.8-0.925c0.31 0 1.4-0.427 2.44-0.949 1.03-0.522 2.18-0.949 2.56-0.949 0.37 0 2.42-0.844 4.54-1.875 5.36-2.596 13.43-6.191 13.9-6.191 0.22 0 0.98-0.427 1.68-0.949 0.71-0.522 1.61-0.949 2.02-0.949 0.92 0 2.38-0.613 12.62-5.278 4.51-2.055 8.32-3.737 8.45-3.737 0.14 0 2.35-0.974 4.91-2.165 2.56-1.19 6.64-2.776 9.07-3.525 2.42-0.748 6.33-2.23 8.68-3.292 2.36-1.062 4.71-1.931 5.23-1.931 1.01 0 6.35-2.513 7.68-3.613 0.44-0.362 1.28-0.658 1.87-0.658 0.83 0 1.13 0.355 1.31 1.542 0.13 0.848 0.46 2.838 0.73 4.421 0.54 3.122 0.05 6.815-1.11 8.476-1.11 1.593-6.32 6.285-8.57 7.72-1.15 0.73-3.48 2.396-5.18 3.701-1.71 1.304-3.86 2.854-4.79 3.444-0.93 0.589-3.67 2.404-6.08 4.033-2.42 1.629-5.45 3.581-6.74 4.34-1.29 0.758-2.83 1.784-3.43 2.281-2.58 2.173-5.96 4.644-6.33 4.644-0.42 0-5.61 2.849-6.73 3.694-0.34 0.255-1.92 1.112-3.51 1.905s-3.49 1.886-4.23 2.429c-0.73 0.543-1.6 0.987-1.94 0.987s-1.04 0.45-1.57 1.001c-0.53 0.55-2.3 1.671-3.93 2.491-3.61 1.811-4.01 2.044-6.81 3.986-1.22 0.845-2.5 1.537-2.84 1.537s-0.93 0.353-1.31 0.785-1.37 1.076-2.21 1.431c-0.83 0.356-2.76 1.502-4.28 2.548-1.53 1.046-4.38 2.622-6.33 3.503-1.96 0.881-4.42 2.153-5.48 2.827-1.05 0.673-3.08 1.785-4.51 2.471-1.42 0.685-3.16 1.54-3.85 1.9-0.69 0.359-1.76 0.657-2.37 0.66-0.62 0.004-1.52 0.396-2.02 0.876-0.5 0.47-2.04 1.46-3.42 2.2-1.39 0.73-3.14 1.94-3.88 2.69-0.79 0.79-1.89 1.36-2.61 1.36-0.69 0-2.23 0.69-3.43 1.54-3.98 2.81-6.26 4.15-7.06 4.15-0.43 0-1.39 0.45-2.12 0.99s-2.59 1.62-4.12 2.39c-1.54 0.77-3.41 2.02-4.16 2.79-1.54 1.57-9.66 5.98-13.46 7.31-1.39 0.49-2.98 1.25-3.53 1.71-0.56 0.45-4.41 2.37-8.57 4.26-4.16 1.9-7.91 3.64-8.32 3.87-0.42 0.22-1.1 0.54-1.51 0.69-0.85 0.32-4.75 2.12-6.31 2.91-0.55 0.29-2.82 1.3-5.04 2.25-2.22 0.96-4.37 1.94-4.79 2.18-0.41 0.24-1.89 1-3.28 1.69-1.38 0.69-3.25 1.78-4.14 2.43-0.9 0.64-2.6 1.37-3.78 1.62s-3.25 1.09-4.6 1.88c-1.36 0.78-3.18 1.51-4.06 1.61-2.24 0.27-11.21 4.29-11.57 5.19-0.17 0.41-0.06 1.26 0.25 1.89 0.91 1.88 0.13 3.26-3.36 5.92-3.59 2.75-4.49 3.89-4.06 5.18 0.47 1.37 8.67 8.12 11.12 9.14 1.25 0.52 2.65 1.48 3.09 2.12 1.37 1.96 5.38 3.53 9.14 3.59 1.81 0.02 4.12 0.37 5.12 0.77 0.99 0.4 3.29 1.11 5.09 1.57 3.67 0.96 7.87 2.27 9.19 2.89 0.49 0.22 1.13 0.4 1.44 0.4 0.3 0 0.96 0.48 1.46 1.06 0.61 0.7 1.97 1.26 4.12 1.68 1.76 0.34 3.82 0.74 4.57 0.89s1.51 0.67 1.67 1.17c0.17 0.49 0.91 1.02 1.66 1.18 4.57 0.99 9.98 2.67 10.87 3.38 1.98 1.6 2.2 1.85 3.02 3.34 0.46 0.82 1.85 2.06 3.09 2.75 1.25 0.69 2.27 1.51 2.27 1.83 0 0.8 2.67 3.12 3.59 3.12 1.96 0 3.06-5.59 1.99-10.11-0.26-1.09-0.75-3.69-1.1-5.78-0.95-5.76-1.78-7.09-7.69-12.25-5.76-5.02-6.94-6.79-7.7-11.53l-0.46-2.91 1.9-2.01c1.04-1.11 2.97-2.74 4.28-3.61 2.22-1.49 2.58-1.58 5.18-1.31 1.53 0.16 3.01 0.45 3.29 0.64 0.27 0.19 1.24 0.47 2.14 0.63 1.35 0.25 1.77 0.1 2.42-0.84 0.72-1.03 0.72-1.27 0.01-2.58-0.8-1.45-1.05-4.56-0.48-5.96 0.17-0.43 1.08-1.07 2.02-1.44 1.34-0.53 1.7-0.95 1.7-1.96 0-0.71 0.38-1.69 0.84-2.17 1-1.04 1.87-2.39 3.06-4.77 0.86-1.71 2.24-2.33 2.91-1.31 0.48 0.73 2.57 0.56 3.29-0.26 0.39-0.44 0.58-1.62 0.48-2.97-0.31-4.12-0.11-5.92 0.7-6.35 0.42-0.22 1.07-0.67 1.43-0.99s1.7-1.04 2.98-1.61c2.16-0.96 2.38-0.98 3.16-0.25 0.68 0.65 1.01 0.68 1.82 0.2 1.4-0.82 1.86-0.73 2.18 0.41 0.24 0.89 0.51 0.96 2.36 0.67 1.24-0.2 2.64-0.11 3.46 0.21 1.11 0.43 1.69 0.39 2.87-0.19 1.89-0.92 3.96-0.94 4.76-0.03 0.48 0.54 1.69 0.7 5.1 0.65 2.89-0.03 4.74 0.15 5.22 0.53 0.62 0.48 1.01 0.34 2.24-0.81 1.29-1.22 1.45-1.66 1.21-3.3l-0.27-1.9 2.18-0.33c1.88-0.29 2.3-0.19 3.01 0.7 0.58 0.73 1.51 1.09 3.15 1.22 2.89 0.24 3.34-0.4 3.21-4.52-0.12-3.9 0.62-4.51 5.07-4.19 2.29 0.16 3.29 0.05 3.71-0.43 0.75-0.86 1.47-0.84 1.47 0.02 0 1.07 0.99 1.39 2.27 0.74 0.9-0.45 1.56-0.46 2.8-0.06 0.9 0.3 2.25 0.54 3.01 0.54 0.75 0 2.19 0.32 3.18 0.71 1 0.39 2.48 0.71 3.29 0.71 0.84 0 1.6 0.31 1.76 0.71s0.66 0.72 1.11 0.72c0.46 0 2.92 0.96 5.49 2.13 2.57 1.18 4.87 2.14 5.12 2.15 0.25 0 1.02 0.42 1.71 0.93 0.7 0.52 1.68 0.94 2.18 0.94 0.5 0.01 1.66 0.55 2.57 1.2s1.84 1.19 2.06 1.19c0.23 0 2.11 0.99 4.18 2.2 3.59 2.11 3.81 2.17 5.08 1.49 2.08-1.12 4.26-1.32 6.41-0.6 2.62 0.88 5.25 0.9 5.25 0.04 0-0.36-0.82-1.41-1.83-2.33-1.48-1.35-1.77-1.9-1.5-2.89 0.38-1.42 2-1.96 4.56-1.51 2.14 0.38 6.48 4.29 8.6 7.75l1.52 2.47 3.09 0.01c2.91 0.01 3.16-0.08 4.36-1.56 1.15-1.42 1.24-1.87 1-4.74-0.16-1.81-0.57-3.4-0.96-3.71-0.38-0.29-0.69-0.94-0.69-1.44 0-1.8-6.81-7.68-11.09-9.57-3.26-1.44-6.78-2.21-10.17-2.22-3.03 0-3.47-0.12-4.41-1.25-0.58-0.69-1.05-1.93-1.05-2.75 0-2.85-6.33-9.74-11.34-12.352-1.67-0.867-4.1-1.719-5.42-1.893-2.79-0.371-3.91-1.245-3.91-3.061 0-1.606 1.39-2.4 4.54-2.601 1.25-0.079 3.74-0.74 5.54-1.469 1.81-0.728 4.3-1.396 5.55-1.484 10.01-0.708 14.16-1.094 15.96-1.485 1.15-0.25 6.14-0.385 11.09-0.299 8.21 0.141 11.2 0.49 14.04 1.639 2.16 0.873 5.59 1.843 6.55 1.85 0.55 0.004 2.14 0.522 3.53 1.152s3.77 1.634 5.3 2.231c1.52 0.597 3.11 1.334 3.53 1.637 0.41 0.304 1.36 0.688 2.1 0.854 0.74 0.165 1.99 0.805 2.78 1.422 0.78 0.617 1.91 1.266 2.51 1.442s1.36 0.633 1.7 1.014c0.34 0.383 1.11 0.693 1.72 0.693 1.26 0 2.8 1.41 4.03 3.7 0.46 0.86 1.36 1.79 2 2.06 0.64 0.28 1.52 1.17 1.95 2 0.43 0.82 1.42 2.21 2.21 3.09 0.79 0.87 2.39 2.69 3.55 4.03 1.17 1.34 2.64 2.97 3.28 3.63 2.87 2.94 3.58 3.94 3.75 5.31 0.1 0.81 0.94 2.34 1.86 3.41 0.93 1.07 1.93 2.81 2.23 3.85 1.49 5.22 4.28 11.81 5.36 12.65 0.9 0.69 0.94 0.88 0.29 1.61-0.86 0.98-0.7 2.49 0.39 3.64 0.56 0.6 0.68 1.34 0.44 2.76-0.26 1.54-0.12 2.19 0.69 3.16 0.56 0.67 1.03 1.78 1.04 2.46s0.33 1.76 0.7 2.4c0.51 0.86 0.55 1.44 0.15 2.26-0.44 0.9-0.33 1.37 0.56 2.5 1.43 1.83 1.42 3.45-0.04 4.05-0.63 0.26-1.11 0.73-1.09 1.06 0.03 0.33 0.09 1.43 0.13 2.46 0.06 1.41 0.32 1.94 1.08 2.17 1.16 0.34 1.34 1.76 0.33 2.55-0.5 0.39-0.63 1.55-0.5 4.39 0.11 2.36-0.03 4.1-0.37 4.49-0.32 0.36-0.41 1.24-0.21 2.08 0.18 0.8 0.06 2.47-0.28 3.71-0.45 1.67-0.47 2.86-0.07 4.61 0.47 2.06 0.41 2.57-0.44 3.94-0.54 0.87-0.87 1.77-0.72 1.99s-0.29 0.94-0.98 1.58c-0.69 0.65-1.35 1.68-1.47 2.29s-0.49 2.49-0.82 4.19-1.13 4.69-1.77 6.64c-0.65 1.96-1.41 4.42-1.69 5.46-1.23 4.53-1.81 6.28-2.68 8.1-0.51 1.06-0.93 2.2-0.93 2.53 0 0.34-0.31 1.18-0.69 1.87-1.25 2.29-2.84 5.78-2.84 6.25 0 0.24-0.93 2.32-2.07 4.61-1.84 3.69-3.6 7.79-5.83 13.59-0.39 1.01-1.07 2.49-1.51 3.3-1.15 2.08-4.01 10.6-4.41 13.11-0.19 1.16-0.82 3.08-1.41 4.27-1.15 2.32-2.33 6.58-2.38 8.64-0.02 0.7-0.51 2.3-1.09 3.56-0.84 1.85-1.06 3.39-1.13 8.03-0.06 4.04-0.29 5.98-0.77 6.52-0.41 0.47-0.53 1.11-0.31 1.61 0.21 0.46 0.46 4.47 0.56 8.91 0.16 7.73 0.64 11.72 1.66 13.76 0.73 1.47 1.6 4.35 1.46 4.8-0.08 0.23 0.12 1.38 0.43 2.55 1.46 5.51 2.41 9.77 2.27 10.18-0.09 0.24 0.13 0.95 0.48 1.57 0.5 0.88 0.51 1.32 0.04 2.03-0.96 1.44-0.73 2.15 1.1 3.47 1.74 1.25 1.82 1.45 2.74 7.28 0.3 1.9 0.87 3 2.51 4.83 1.16 1.3 2.11 2.81 2.11 3.36 0 1.14 1.04 2.76 3.05 4.78 0.75 0.76 1.83 2.3 2.38 3.42 0.57 1.13 2.33 3.1 4 4.46 4.03 3.31 5.23 6.8 2.56 7.45-1.54 0.38-2.51-0.27-5.34-3.59-1.39-1.64-3.45-3.81-4.57-4.84-1.12-1.02-2.61-2.95-3.3-4.28s-2.69-3.96-4.43-5.83c-4.02-4.33-11.99-14.66-11.99-15.55 0-0.11-0.77-1.69-1.7-3.5-0.94-1.8-1.86-4.32-2.05-5.58-0.39-2.54-1.44-6.25-2.82-9.9-1.02-2.68-3.09-14.74-3.02-17.58 0.02-1.03-0.21-7.1-0.52-13.5-0.67-13.97-0.67-10.7 0.02-22.47 0.32-5.44 0.79-10.42 1.05-11.06s0.47-2.4 0.47-3.92 0.3-3.58 0.68-4.6c0.37-1.01 0.82-3.54 0.99-5.63 0.18-2.09 0.78-4.92 1.34-6.29 0.56-1.38 1.02-3.19 1.02-4.04 0-0.84 0.36-3.03 0.79-4.85 2.02-8.51 2.14-18.13 0.27-22.09-0.56-1.18-1.17-3.1-1.36-4.27-0.19-1.16-0.96-3.39-1.72-4.96-2.71-5.57-3.45-8.32-3.74-13.95-0.15-2.98-0.37-5.51-0.5-5.62-0.12-0.12-2.25 0.04-4.74 0.34-3.29 0.4-5.31 0.42-7.44 0.05-1.61-0.28-3.96-0.51-5.24-0.51-1.39 0-2.81-0.33-3.56-0.83-0.68-0.45-2.37-1.36-3.73-2.01-1.37-0.66-3.13-1.5-3.91-1.87-0.78-0.38-1.42-0.98-1.42-1.34 0-0.38-0.38-0.59-0.88-0.5-0.95 0.18-0.94 0-0.39 9.4 0.27 4.63-1.23 11.56-3.31 15.29-0.26 0.45-0.46 1.35-0.46 1.99s-0.66 2.19-1.46 3.44c-0.8 1.26-1.85 3.46-2.33 4.9-1.5 4.51-2.17 5.69-3.23 5.69-1.1 0-1.56 0.52-2.31 2.57-0.28 0.75-0.95 1.61-1.5 1.89-1.62 0.85-7.45 5.52-8.56 6.87-1.55 1.87-3.46 3.35-4.34 3.37-0.43 0-1.23 0.32-1.76 0.71-0.54 0.38-1.39 0.7-1.89 0.71-0.51 0.01-1.75 0.63-2.78 1.37-1.44 1.06-2.92 1.54-6.65 2.14-2.63 0.42-6.42 1.06-8.41 1.41s-4.82 0.54-6.3 0.44c-1.47-0.11-5.4 0.14-8.73 0.57-7.43 0.94-6.66 0.9-9.12 0.49-1.94-0.31-2.09-0.25-2.61 1.02-0.3 0.74-0.69 2.14-0.86 3.1-0.21 1.22-0.63 1.85-1.37 2.07-1.58 0.48-4.99-0.76-6.5-2.35-1.22-1.29-1.45-1.36-2.79-0.83-0.8 0.31-2.22 1.3-3.14 2.2-0.94 0.9-2.79 1.97-4.17 2.4-2.76 0.86-3.47 1.73-3.47 4.23 0 1.34 0.44 2.16 2.09 3.84 1.15 1.17 2.83 2.47 3.73 2.87 1.71 0.76 3.77 2.57 8.03 7.04 1.38 1.45 2.86 2.64 3.29 2.64s1.23 0.29 1.78 0.64c0.54 0.35 2.07 1.02 3.39 1.49 1.31 0.47 2.39 1.02 2.39 1.23 0 0.2 1.42 1.73 3.15 3.39 1.73 1.65 3.56 3.6 4.06 4.32 0.51 0.73 1.3 1.45 1.77 1.61 1.32 0.44 2.51 1.78 2.7 3.03 0.09 0.63 0.66 1.34 1.26 1.59 1.12 0.46 3.7 5.07 3.7 6.6 0 1.28 0.92 2.63 3.37 4.98 1.76 1.67 2.18 2.37 1.94 3.24-0.18 0.69 0.06 1.59 0.66 2.41 0.52 0.71 1.33 1.89 1.79 2.62 0.51 0.78 1.46 1.43 2.34 1.6 1.05 0.19 1.49 0.56 1.49 1.22 0 1.14 4.04 4.79 6.81 6.14 1.11 0.54 2.98 1.81 4.15 2.82s2.44 1.84 2.82 1.84 1.12 0.45 1.65 1 2.01 1.5 3.29 2.11c1.29 0.62 2.47 1.44 2.62 1.83 0.16 0.39 1.16 1.16 2.21 1.71 4.23 2.19 4.96 2.64 5.58 3.41 0.36 0.45 0.94 0.71 1.29 0.58 0.35-0.12 1.78 0.79 3.17 2.04s3.48 3.08 4.66 4.07c1.24 1.05 2.25 2.38 2.43 3.22 0.16 0.78 1.03 2 1.93 2.7 0.89 0.71 1.9 1.79 2.24 2.4s1.37 1.41 2.31 1.77c1.64 0.65 4.27 3.33 4.27 4.37 0 0.28 0.59 1.17 1.31 1.97 0.93 1.04 1.74 1.46 2.84 1.46 0.84 0 2.24 0.4 3.1 0.9 0.87 0.49 2.36 1.05 3.32 1.24 1.94 0.39 2.82 0.81 5.74 2.72 1.1 0.72 2.3 1.31 2.67 1.31 0.38 0 0.68 0.42 0.68 0.93s0.43 1.31 0.94 1.78c1.01 0.91 1.59 2.63 1.83 5.48 0.19 2.15 0.89 3.03 3.09 3.9 1.1 0.43 2.01 1.32 2.74 2.7 0.61 1.13 1.49 2.48 1.98 3 0.96 1.04 2.53 5.3 2.53 6.87 0 1.11 1.72 4.53 2.52 4.99 0.28 0.16 0.51 0.87 0.51 1.57 0 1.74 1.74 4.29 3.29 4.84 1.53 0.55 2.33 2.25 1.64 3.49-0.67 1.21-0.07 3.8 1.13 4.82 0.68 0.58 1 1.46 1 2.79 0 1.11 0.44 2.62 1.01 3.5 0.55 0.85 1.01 2.03 1.02 2.61s0.34 1.59 0.74 2.24 0.73 1.61 0.74 2.12 1.06 1.83 2.35 2.94c1.95 1.69 2.27 2.21 2 3.23-0.33 1.25 0.53 3.29 2.29 5.42 0.52 0.62 0.94 1.71 0.94 2.43s0.32 1.55 0.7 1.85c0.39 0.3 0.82 1.34 0.96 2.31 0.4 2.78 1.12 4.98 2.6 7.92 0.86 1.72 1.26 3.13 1.07 3.83-0.22 0.82-0.04 1.17 0.7 1.4 0.54 0.16 1.57 0.95 2.29 1.75 1.07 1.2 1.28 1.88 1.19 3.84-0.11 2.13 0.04 2.51 1.49 3.72 0.88 0.75 1.6 1.74 1.6 2.2 0 0.47 0.63 1.4 1.39 2.07 2.48 2.17 5.67 5.58 5.67 6.06 0 0.47 4.28 3.37 4.98 3.37 0.81 0 7.91 6.37 8.49 7.61 0.34 0.72 1.24 1.76 2.02 2.3 0.77 0.54 1.8 1.35 2.29 1.8 1.27 1.16 1.89 0.34 2.23-2.98 0.38-3.64 1.35-5.16 3.7-5.82 2.71-0.77 3.56-0.68 7.15 0.77 4.71 1.9 10.98 6.79 11 8.56 0 0.45 0.89 1.71 1.97 2.81s2.12 2.43 2.3 2.96c0.18 0.54 0.54 0.97 0.8 0.97 0.84 0 0.49 1.91-0.61 3.31l-1.07 1.36 1.07 2.09c1.63 3.16 1.43 4.02-1.61 6.79-2.59 2.36-2.8 2.45-6.13 2.7-2.74 0.21-3.91 0.07-5.74-0.67-1.83-0.73-2.56-0.82-3.51-0.41-1.04 0.45-1.16 0.74-0.87 2.15 0.38 1.95-0.47 3.76-3.3 6.97-1.08 1.22-1.97 2.56-1.97 2.98 0 0.95-2.48 5.65-3.1 5.87-1.38 0.5-3.36 2.62-3.63 3.9-0.17 0.81-0.78 2.09-1.35 2.84-1.26 1.67-5.23 4.25-6.54 4.25-0.65 0-1.27 0.67-1.93 2.07-0.76 1.61-1.59 2.4-3.74 3.56-1.52 0.82-3.35 1.49-4.07 1.49s-1.88 0.25-2.59 0.55c-1.7 0.73-3.03 0.03-5.2-2.72-2.16-2.74-3.91-2.87-5.88-0.44-0.74 0.91-2.07 2.01-2.96 2.44-0.88 0.42-2.4 1.4-3.37 2.16s-2.3 1.8-2.95 2.3c-0.64 0.51-1.44 0.93-1.76 0.93s-2.5 1.67-4.84 3.7l-4.25 3.7 0.69 2.35c0.39 1.29 1.45 3.27 2.37 4.4 0.91 1.13 1.81 2.62 1.98 3.32 0.18 0.7 0.5 1.48 0.71 1.74 0.22 0.26 0.8 1.44 1.3 2.61 0.5 1.18 1.62 3.02 2.49 4.1 2.29 2.83 2.77 6.98 1.13 9.8-1.65 2.85-4.55 4.13-9.3 4.13h-3.63l-1.17-2.01c-2.11-3.62-8.12-5.2-12.53-3.28-2.34 1.01-5.59 2.16-8.44 2.97-0.9 0.26-2 0.99-2.44 1.62-0.46 0.66-1.5 1.28-2.44 1.44-0.9 0.16-2.61 1.13-3.8 2.15-1.27 1.09-2.66 1.86-3.38 1.86-0.67 0-2.06 0.53-3.08 1.18-1.02 0.66-2.15 1.19-2.52 1.19s-1.63 0.91-2.8 2.02c-2.21 2.09-5.57 4.62-6.14 4.62-0.63 0-6.07 4.19-8.1 6.23-1.12 1.14-3.27 3.04-4.77 4.21-5.47 4.31-15.15 13.87-19.5 19.28-1.02 1.27-2.1 2.4-2.39 2.51-1.11 0.42-10.35 9.04-10.35 9.67 0 0.21-1.08 1.42-2.4 2.69-2.62 2.54-3.89 3.93-6.93 7.64-1.11 1.36-3.27 3.78-4.79 5.38-1.53 1.6-3.68 3.94-4.79 5.19-1.11 1.26-3.78 4.03-5.93 6.16s-4.46 4.97-5.14 6.3c-1.3 2.53-3.11 4.1-6.71 5.82-1.17 0.57-2.14 1.25-2.14 1.53 0 0.27-1.22 1.71-2.7 3.19-1.49 1.48-2.93 3.12-3.2 3.64-0.31 0.6-0.33 2.69-0.06 5.7 0.24 2.61 0.57 6.92 0.73 9.58 0.19 3.32 0.5 5.02 0.99 5.4 0.39 0.3 0.71 0.73 0.71 0.95s0.55 1.16 1.23 2.09c0.67 0.94 1.38 2.39 1.56 3.23 0.19 0.84 0.77 1.95 1.28 2.48 1.12 1.16 3.52 6.04 5.02 10.22 0.6 1.68 1.75 3.9 2.56 4.93 0.8 1.03 1.46 2.23 1.46 2.67s0.33 1.05 0.73 1.37c0.4 0.31 0.99 1.32 1.32 2.23 0.32 0.91 1.12 2.55 1.78 3.64s1.2 2.74 1.21 3.67c0.01 2.44 1.35 6.4 3.33 9.8 1.42 2.45 1.77 3.61 1.98 6.73 0.16 2.25 0.67 4.63 1.27 5.92 0.69 1.47 1 3.1 0.97 5.14-0.06 3.77 0.47 8.06 1.07 8.65 0.25 0.25 0.46 1.14 0.46 1.99s0.2 1.65 0.44 1.8c1.08 0.62 0.93 2.89-0.33 5.09-1.19 2.07-1.23 2.34-0.52 3.11 1.75 1.87 2.55 4 1.97 5.21-0.3 0.62-0.55 1.48-0.55 1.91 0 0.42-0.39 1.17-0.85 1.65-0.73 0.75-0.76 1.13-0.26 2.45 0.33 0.86 0.6 2.1 0.6 2.77s0.35 1.99 0.77 2.94c0.65 1.48 0.67 1.91 0.08 3.02-0.67 1.25-0.78 4.32-0.22 5.81 0.15 0.39 0.6 3.38 0.99 6.64 0.75 6.18 0.76 14.64 0.04 33.37-0.3 7.9-0.25 10.48 0.21 10.84 0.9 0.7 1.66 0.04 1.66-1.44 0-0.71 0.29-1.57 0.63-1.89 0.35-0.33 0.67-1.17 0.71-1.88 0.04-0.7 0.44-3.31 0.88-5.79s0.8-6.69 0.8-9.36c0.01-4.55 0.11-5.04 1.64-7.79 2.8-5.03 4.75-6.55 14.25-11.12 4.71-2.27 9.66-4.87 11-5.78 2.26-1.55 2.6-1.64 5.13-1.36 1.5 0.17 2.83 0.13 2.97-0.09 0.15-0.22 1.87-0.68 3.82-1.03 1.96-0.35 3.81-0.92 4.12-1.26 0.31-0.35 0.96-0.64 1.45-0.64 0.48 0 1.16-0.32 1.51-0.71 0.34-0.39 1.34-0.71 2.2-0.71 1.66 0 7.49-2.46 10.69-4.5 1.03-0.66 2.3-1.2 2.83-1.2s1.69-0.7 2.58-1.57c2.12-2.06 5.75-4.73 7.75-5.7 0.87-0.43 2.01-1.26 2.52-1.85 0.51-0.6 1.55-1.46 2.31-1.92 0.91-0.55 1.39-1.25 1.39-2.03 0-0.66 0.9-2.81 2.01-4.78s2.02-4.2 2.02-4.96c0-1.51 1.6-3.38 2.63-3.07 0.36 0.1 1.26 0.31 2.01 0.46 1.01 0.21 1.49 0.7 1.83 1.86 0.6 2.04 0.15 6.31-0.74 7.01-0.38 0.29-0.69 0.74-0.69 0.99 0 0.26-0.79 1.98-1.76 3.83-0.97 1.86-1.77 4.08-1.77 4.95 0 1.49 0.09 1.56 1.39 1.27 0.76-0.18 1.99-0.71 2.72-1.2 0.74-0.48 1.56-0.88 1.83-0.88s0.8-0.35 1.18-0.78c0.39-0.43 1.28-1.02 1.99-1.31 1.99-0.8 7.05-4.95 9.49-7.78 3.61-4.2 6.97-5.45 9.13-3.41 1.08 1.01 1.33 3.4 0.56 5.32-0.25 0.62-2.07 2.64-4.04 4.49-3.24 3.06-3.58 3.55-3.58 5.28 0 1.62-0.44 2.41-2.95 5.3-1.62 1.87-3.66 3.8-4.53 4.31-1.78 1.01-1.94 1.48-0.84 2.34 0.42 0.33 0.76 0.86 0.76 1.19 0 0.95-4.13 5.93-4.92 5.93-0.39 0-1.61 0.59-2.7 1.3-1.81 1.19-1.96 1.45-1.68 2.91 0.21 1.17-0.02 2.17-0.87 3.68-0.65 1.14-1.34 2.07-1.55 2.07s-0.38 0.39-0.38 0.87c0 1-2 2.92-3.06 2.94-0.4 0.01-1.49 0.61-2.43 1.35-1.66 1.3-1.68 1.35-0.87 2.53 1.08 1.54 0.37 3.7-1.21 3.7-0.6 0-2.28 1.19-3.99 2.81-1.62 1.55-3.88 3.26-5.03 3.81-1.79 0.86-2.01 1.13-1.57 1.9 1.23 2.16 0.19 4.1-2.39 4.46-0.9 0.12-2.33 0.78-3.19 1.45-0.85 0.68-1.97 1.23-2.48 1.23s-1.29 0.33-1.72 0.74c-0.71 0.67-0.71 0.84 0.01 1.87 1.24 1.78 0.31 2.62-4.3 3.87-6.77 1.84-7.51 2.22-7.69 4.03-0.14 1.35-0.5 1.73-2.43 2.6-1.25 0.56-2.45 0.91-2.67 0.79-0.95-0.53-5.71 1.01-6.91 2.24-0.69 0.71-2.17 1.56-3.28 1.88-3.44 1.02-3.76 1.27-4.51 3.51-0.26 0.79-0.65 0.87-3.07 0.63-2.61-0.25-2.83-0.19-3.62 1-0.46 0.7-1.4 1.72-2.09 2.27-1.69 1.34-1.18 2.2 1.76 2.96 3.79 0.98 5.61 2.02 7.77 4.43 2.19 2.44 3.2 4.45 2.66 5.27-0.19 0.3-0.38 3.75-0.42 7.67-0.08 6.98-0.67 10.83-2.53 16.4-0.39 1.17-0.93 3.31-1.19 4.74-0.26 1.44-0.85 3.89-1.32 5.46-0.87 2.93-0.78 4.07 0.85 9.95 0.56 2.01 2.77 6.26 3.47 6.67 1.01 0.58 3.5 4.64 3.5 5.69 0 0.66 0.43 1.36 1.01 1.65 0.59 0.29 1.01 0.99 1.01 1.67 0 0.63 0.4 2.07 0.88 3.18 0.72 1.66 0.88 3.5 0.88 10.17v8.15l-2.17 2.96c-2.12 2.93-2.16 3.03-1.65 5.13 0.84 3.5 0.02 7.1-2.36 10.5-0.46 0.6-1.38 2.7-2.06 4.5-1.42 3.9-2.33 5.2-5.98 8.6l-2.69 2.6-5.91-0.1c-5.13 0-6.07-0.1-7.11-0.9zm-37.41-387.45c1.89-1.72 4.08-3.52 4.88-4s3.05-2.3 4.99-4.05c1.94-1.74 4.49-3.56 5.67-4.05 1.18-0.48 2.14-1.1 2.14-1.37 0-0.79 1.65-2.12 4.65-3.74 1.55-0.83 2.94-1.82 3.09-2.19s1.53-1.24 3.06-1.92c1.54-0.68 3.3-1.91 3.92-2.73 1.54-2.04 3.84-3.99 5.95-5.07 0.97-0.49 2.97-1.95 4.45-3.24 1.47-1.3 3.21-2.58 3.87-2.86 1.52-0.65 4.35-2.9 12.61-9.99 1.11-0.95 2.65-2.04 3.43-2.42s1.77-1.23 2.2-1.89c0.42-0.67 1.71-1.64 2.86-2.16s2.31-1.42 2.58-1.99 0.83-1.16 1.26-1.32c3.62-1.29 11-9.15 13.61-14.48 0.96-1.96 2.49-4.51 3.4-5.66 0.92-1.15 1.66-2.47 1.66-2.94s0.57-1.64 1.26-2.6c0.7-0.96 1.27-2.27 1.27-2.92 0-0.64 0.35-2.47 0.79-4.06 0.65-2.37 0.69-3.24 0.19-4.9-0.69-2.34-1.47-3.06-4.26-3.93-3.71-1.17-3.89-1.63-2.2-5.72 1.82-4.44 2.12-4.91 4.7-7.24 2.64-2.39 4.62-2.91 5.82-1.55 0.34 0.39 1.23 0.71 1.98 0.71 1.29 0 4.29 2.13 5.37 3.81 0.25 0.4 1.89 1.68 3.63 2.85 1.75 1.16 4.2 2.83 5.45 3.7 2.61 1.82 2.81 1.75 5.23-1.79 1.52-2.24 1.54-2.35 1.44-7.91l-0.1-5.64 2.23-4.51c2.18-4.41 2.23-4.61 2.14-9.02-0.09-4.87 0.12-5.44 4.11-10.92 0.85-1.18 1.87-3.03 2.25-4.11 0.65-1.88 0.61-2.12-0.87-5.09-0.85-1.72-1.77-3.12-2.03-3.12-0.27 0-1.09-0.98-1.83-2.17-0.74-1.18-2.58-3.37-4.09-4.86-1.99-1.95-4.13-5.08-7.68-11.24-4.63-8.02-5.71-10.14-7.47-14.62-0.39-1-1.56-2.92-2.6-4.28-1.03-1.35-2.22-3.08-2.63-3.84s-1.68-2.36-2.82-3.56c-1.14-1.19-3.01-3.43-4.16-4.97s-3.47-4-5.17-5.46c-3.51-3.01-10.08-10.18-11.47-12.5-0.51-0.85-1.62-2.72-2.48-4.15-0.85-1.44-2.39-4.96-3.41-7.83-2.07-5.8-3.49-8.37-5.76-10.42-0.84-0.76-1.53-1.82-1.53-2.36-0.02-2.83-2.86-9.11-5.18-11.42-0.52-0.52-1.45-1.69-2.06-2.6-0.61-0.9-1.89-2.12-2.86-2.69-0.96-0.58-2.46-1.6-3.33-2.27s-1.83-1.22-2.13-1.22c-0.52 0-4.04-1.58-10.15-4.57-5.19-2.54-9.87-5.75-11.26-7.72-0.75-1.07-1.6-1.94-1.9-1.94-0.29 0-3.47-2.78-7.07-6.17-3.59-3.39-6.73-6.17-6.96-6.17-0.24 0-0.81-0.76-1.28-1.69s-1.18-1.8-1.57-1.95c-0.4-0.14-0.72-0.53-0.72-0.87 0-1.26-5.82-5.54-8.87-6.53-1.64-0.52-3.43-1.25-3.97-1.6-0.55-0.35-1.31-0.64-1.68-0.64-0.38 0-2.04-0.75-3.7-1.66-1.65-0.92-3.33-1.67-3.72-1.67s-0.98 0.86-1.31 1.91c-0.34 1.05-0.91 2.14-1.28 2.43-0.38 0.29-0.68 0.81-0.68 1.16 0 0.34-1 1.63-2.23 2.85-1.63 1.62-2.41 2.89-2.85 4.65-0.68 2.72-1.63 4.61-4.13 8.22-1.94 2.8-5.7 6.78-6.4 6.78-0.26 0-1.22 0.86-2.13 1.92-0.92 1.06-2.48 2.32-3.47 2.82-0.99 0.49-3.18 2.13-4.86 3.65-2.83 2.56-3.19 3.12-4.88 7.76-1.77 4.87-2.41 9.55-1.38 10.15 0.25 0.14 2.12 0.06 4.15-0.18 2.04-0.24 3.94-0.28 4.22-0.1 0.65 0.43 3.7 0.38 7.45-0.12 2.09-0.28 3.12-0.22 3.66 0.2 0.6 0.47 0.91 0.46 1.52-0.02 0.59-0.45 1.07-0.47 2.01-0.07 0.68 0.29 3.22 0.76 5.66 1.04 4.53 0.53 11.27 2.37 17.53 4.8 1.94 0.75 4 1.36 4.58 1.36 0.68 0 3.11 1.91 6.69 5.24 4.89 4.55 5.91 5.28 7.85 5.62 1.22 0.22 3.32 1.15 4.66 2.07 3.63 2.49 8.41 4.62 9.67 4.31 0.6-0.15 1.08-0.05 1.08 0.21 0 0.25 1.14 0.93 2.52 1.49 1.39 0.56 2.52 1.24 2.52 1.5 0 0.84 2.72 3.8 4.14 4.51 0.75 0.37 2.08 0.68 2.96 0.68 1.03 0 2.48 0.59 4.02 1.62 1.32 0.9 4.13 2.31 6.23 3.13 2.11 0.83 3.96 1.7 4.12 1.95 0.16 0.24 1.74 1.3 3.5 2.35 3.32 1.97 3.15 1.75 6.55 8.74 1.69 3.48 2.77 6.52 2.77 7.81 0 0.62 0.31 1.47 0.68 1.88 1.13 1.23 1.84 3.81 1.84 6.68 0 2.64-0.07 2.78-3.29 6.33-1.81 2-3.46 3.63-3.66 3.63s-0.66 0.45-1.02 0.99c-0.82 1.23-0.16 2.11 1.89 2.49 0.81 0.16 1.77 0.63 2.13 1.06 0.37 0.42 1.14 1.23 1.72 1.79 0.57 0.57 1.19 1.4 1.37 1.86 0.18 0.45 0.67 0.83 1.1 0.83 0.42 0 0.77 0.18 0.77 0.41s0.74 0.7 1.64 1.04c0.9 0.33 2.24 1 2.97 1.48 0.74 0.47 1.82 0.86 2.4 0.86 0.79 0 1.06 0.3 1.06 1.18 0 0.65 0.79 2.59 1.76 4.31s1.77 3.53 1.77 4.01c0 0.49 0.22 1.02 0.5 1.18s0.5 1.68 0.5 3.37c0 1.86 0.31 3.65 0.79 4.51 0.6 1.09 0.7 2.18 0.44 4.66-0.27 2.59-0.19 3.33 0.4 3.66 1.81 1 1.13 6.34-0.81 6.34-1.28 0-2.2 1.69-2.51 4.64-0.17 1.65-0.57 3.45-0.89 4-0.31 0.56-0.6 2.07-0.63 3.37-0.07 2.59-1.22 3.93-2.42 2.81-0.81-0.77-1.4-5.74-0.85-7.14 0.87-2.22 0.51-5.16-0.83-6.65-0.69-0.77-1.26-1.66-1.26-1.97s-0.72-1.51-1.59-2.66c-1.23-1.6-1.66-2.74-1.84-4.82-0.2-2.37-0.47-2.96-2.05-4.43-3.06-2.83-5.94-6.91-6.57-9.31-1.78-6.73-1.91-6.98-4.2-7.98-2.18-0.96-2.81-1.99-3.67-6.06-0.4-1.9-1.47-2.06-4.27-0.63-2.01 1.04-3.76 1.39-9.68 2-8.21 0.84-11.03 0.88-14.12 0.21-1.2-0.26-2.87-0.48-3.73-0.48-1.67-0.02-5.36-2.09-7.82-4.4-1.36-1.28-4.99-7.67-4.99-8.78 0-1.3-5.21-9.99-7.45-12.45-3.07-3.36-4.15-5.3-4.15-7.44 0-0.66-0.66-2.13-1.46-3.25-0.81-1.12-1.63-2.53-1.83-3.12-1.19-3.51-3.36-5.12-4.76-3.54-0.35 0.41-1.13 0.74-1.73 0.74s-1.53 0.29-2.08 0.64c-1.88 1.22-5.04 1.91-9.32 2.05-2.35 0.08-5.76 0.25-7.56 0.37-1.8 0.13-4.12 0.23-5.15 0.24-3.39 0.03-3.47 1.96-0.3 7.13 0.23 0.4 1.1 2 1.92 3.56 0.82 1.57 2.15 3.28 2.94 3.8 0.8 0.52 2.43 1.64 3.62 2.49s2.75 1.55 3.48 1.56c0.72 0.01 1.75 0.33 2.29 0.71 0.53 0.38 1.38 0.7 1.89 0.7 0.5 0 1.36 0.42 1.92 0.94 0.55 0.53 1.64 0.95 2.42 0.95s2.16 0.52 3.07 1.16c0.92 0.63 2.61 1.29 3.76 1.47 2.36 0.36 3.78 1.42 5.95 4.45 1.06 1.46 1.42 2.42 1.21 3.21-0.21 0.76-0.06 1.21 0.46 1.4 0.43 0.15 0.77 0.58 0.77 0.96 0 1.21 2.38 3.01 3.98 3.01 0.83 0 1.67 0.24 1.86 0.53s1.39 0.96 2.67 1.49c1.28 0.52 2.98 1.68 3.78 2.58 1.8 2.02 6.56 4.13 11.03 4.89 1.87 0.32 3.4 0.72 3.4 0.9 0 0.17 1.03 1.35 2.27 2.63 2.36 2.42 2.9 4.21 1.43 4.74-0.77 0.28-0.78 0.37-0.06 1.05 0.51 0.48 2.05 0.83 4.25 0.97 1.9 0.12 3.91 0.4 4.47 0.63 0.55 0.22 2.08 0.54 3.39 0.7s2.5 0.48 2.65 0.7c0.14 0.23 1.17 0.55 2.28 0.73 1.66 0.26 2.86 1.1 6.85 4.77 4.03 3.72 4.93 4.82 5.48 6.72 0.37 1.25 0.82 2.63 1.01 3.06 0.63 1.44-1.42 2.77-4.25 2.77-3.29 0-3.94 0.95-2.52 3.71 0.54 1.07 0.99 2.2 0.99 2.51 0 0.32 0.38 0.98 0.84 1.46 0.53 0.55 0.88 1.85 0.96 3.59 0.06 1.5 0.36 3.31 0.66 4.03 0.46 1.11 0.35 1.57-0.75 3.08-2.04 2.84-4.83 3.76-7.02 2.32-1.45-0.96-5.69-0.27-6.88 1.12-1.6 1.85-1.19 3.1 1.57 4.78 1.37 0.83 2.62 1.82 2.77 2.19s0.65 0.61 1.11 0.53 0.94 0.13 1.06 0.45c0.13 0.36-0.22 0.6-0.86 0.6s-1.39 0.52-1.87 1.3c-0.44 0.72-1.73 1.89-2.87 2.6-1.15 0.71-3.1 2.03-4.35 2.93-3.17 2.28-6.91 4.08-8.48 4.08-0.72 0-2.23 0.3-3.35 0.67s-3.62 1.01-5.57 1.42c-2.83 0.6-3.85 1.08-5.16 2.41-0.9 0.91-1.64 1.86-1.64 2.12 0 0.75 1.57 1.29 4.72 1.63 5.52 0.58 6.37 2.1 2.5 4.51-1.29 0.81-2.53 1.47-2.75 1.47-0.67 0-4.98 2.9-4.98 3.35 0 0.52-3.48 2.68-6.3 3.92-5.41 2.36-6.78 2.64-12.88 2.66-3.46 0.01-6.11-0.18-6.29-0.45-0.48-0.74-3.73-1.89-5.33-1.89-1.91 0-3.36 1.94-2.6 3.47 2.17 4.3 4.45 11.26 4.95 15.04 0.19 1.43 0.79 3.3 1.33 4.14 0.54 0.85 0.82 1.78 0.62 2.07-0.61 0.93-0.73 5.23-0.17 6.21 0.29 0.51 0.6 2.68 0.69 4.81 0.09 2.14 0.41 7.41 0.72 11.71 0.3 4.31 0.62 10.29 0.7 13.29 0.14 5.36 0.42 6.64 1.44 6.64 0.28 0 2.05-1.4 3.93-3.12zm137.33-101.68c1.44-1.27 3.75-3.25 5.14-4.39 1.38-1.14 2.71-2.35 2.93-2.69 0.23-0.34 0.84-0.49 1.36-0.33 0.63 0.19 1.12-0.03 1.47-0.66 1.16-2.03-1.15-3.85-4.88-3.85-2.44 0-4.66 0.97-4.67 2.04 0 0.31-1.14 2.28-2.52 4.36-3.1 4.69-3.63 5.82-3.25 6.95 0.48 1.41 1.63 1.04 4.42-1.43zm-117.23-100.69c0.86-0.28 2.03-1.19 2.61-2.01 0.58-0.83 1.96-2.68 3.08-4.12 5.8-7.45 6.13-8.62 3.14-11.2-1.02-0.88-2.32-1.74-2.9-1.91-0.57-0.17-1.74-0.81-2.6-1.43-0.86-0.61-2.67-1.32-4.03-1.57-2.34-0.43-2.54-0.39-3.64 0.83-0.64 0.71-1.58 2.03-2.09 2.95-0.52 0.91-1.98 2.72-3.25 4.02-2.52 2.57-2.51 2.46-1.23 7.94 0.41 1.8 1.05 2.69 3.27 4.62 2.95 2.57 4.44 2.93 7.64 1.88zm-40.99-17.27c6.4-0.84 8.9-1.38 12.35-2.66 1.53-0.56 4.08-1.37 5.68-1.78 2.03-0.54 2.9-1 2.9-1.55 0-1.06-4.82-4.44-7.32-5.14-2.1-0.59-4.97-1.58-7.56-2.62-6.4-2.56-20.16-3.77-23.6-2.07-0.5 0.25-2.79 0.64-5.09 0.86-5.58 0.54-8.06 1.64-8.27 3.66-0.23 2.19 1.19 3.33 4.19 3.38 2.81 0.06 3.99 0.88 4.83 3.34 1.02 2.98 1.83 3.51 4.84 3.16 2.02-0.24 2.92-0.13 3.92 0.49 2.74 1.69 5.71 1.9 13.13 0.93z"/>
  <metadata>
    <rdf:RDF>
      <cc:Work>
        <dc:format>image/svg+xml</dc:format>
        <dc:type rdf:resource="http://purl.org/dc/dcmitype/StillImage"/>
        <cc:license rdf:resource="http://creativecommons.org/licenses/publicdomain/"/>
        <dc:publisher>
          <cc:Agent rdf:about="http://openclipart.org/">
            <dc:title>Openclipart</dc:title>
          </cc:Agent>
        </dc:publisher>
        <dc:title>Perseus</dc:title>
        <dc:date>2006-10-23T07:07:58</dc:date>
        <dc:description>Perseus, with shield uplifted to hide from the Gorgon&#x2019;s eye, sword at the ready, and of course with wings on his feet (or ankles). Traced from Mary Hamilton Frye's "Myths Every Child Should Know" (1914).</dc:description>
        <dc:source>http://openclipart.org/detail/833/perseus-by-liftarn</dc:source>
        <dc:creator>
          <cc:Agent>
            <dc:title>liftarn</dc:title>
          </cc:Agent>
        </dc:creator>
        <dc:subject>
          <rdf:Bag>
            <rdf:li>clip art</rdf:li>
            <rdf:li>clipart</rdf:li>
            <rdf:li>image</rdf:li>
            <rdf:li>media</rdf:li>
            <rdf:li>mythology</rdf:li>
            <rdf:li>people</rdf:li>
            <rdf:li>png</rdf:li>
            <rdf:li>public domain</rdf:li>
            <rdf:li>silhouette</rdf:li>
            <rdf:li>svg</rdf:li>
          </rdf:Bag>
        </dc:subject>
      </cc:Work>
      <cc:License rdf:about="http://creativecommons.org/licenses/publicdomain/">
        <cc:permits rdf:resource="http://creativecommons.org/ns#Reproduction"/>
        <cc:permits rdf:resource="http://creativecommons.org/ns#Distribution"/>
        <cc:permits rdf:resource="http://creativecommons.org/ns#DerivativeWorks"/>
      </cc:License>
    </rdf:RDF>
  </metadata>
</svg>
